<svg width="40" height="40" viewBox="0 0 40 40" fill="none" xmlns="http://www.w3.org/2000/svg">
<rect width="40" height="40" rx="10" fill="#0F172A"/>
<g clip-path="url(#clip0_3491_19569)">
<path d="M19.7858 9C13.7618 9 8.87805 13.913 8.87805 19.9728C8.87805 26.0329 13.7618 30.9459 19.7858 30.9459C25.8099 30.9459 30.6936 26.0329 30.6936 19.9728C30.6936 13.9133 25.8099 9 19.7858 9ZM29.9842 19.9728C29.9842 25.6387 25.4184 30.2321 19.7858 30.2321C14.1532 30.2321 9.58748 25.6387 9.58748 19.9728C9.58748 14.3072 14.1535 9.71347 19.7858 9.71347C25.4181 9.71347 29.9842 14.3072 29.9842 19.9728Z" fill="white"/>
<path d="M25.0725 15.3175C25.2204 15.4776 25.4341 15.7358 25.554 15.8926L27.7628 14.4821C27.6525 14.337 27.4765 14.1164 27.3454 13.9609L25.9464 14.8913L25.8509 14.9738L25.922 14.8693L26.5398 13.6293L26.1028 13.1899L24.8696 13.8111L24.766 13.8826L24.8485 13.7867L25.7737 12.3802C25.611 12.2409 25.4546 12.1132 25.2554 11.9586L23.8531 14.1784C24.0309 14.3159 24.2651 14.5176 24.4143 14.6551L25.7343 13.9661L25.8186 13.9034L25.7566 13.9887L25.0725 15.3178V15.3175ZM20.0604 12.504L20.664 11.1442L20.7023 11.0236L20.6914 11.1491L20.7547 12.9666C20.9666 12.9867 21.1854 13.0164 21.4009 13.0524L21.3026 10.3608C21.0013 10.3272 20.7011 10.3034 20.4009 10.2905L19.8063 11.7749L19.7852 11.8852L19.7641 11.7752L19.1704 10.2905C18.87 10.3034 18.5698 10.3272 18.2684 10.3608L18.1705 13.0527C18.386 13.0161 18.6045 12.9874 18.8163 12.9666L18.8796 11.1491L18.8688 11.0236L18.9073 11.1439L19.5107 12.504H20.0604ZM15.1791 14.6493C15.5281 14.2796 15.7255 13.8524 15.3768 13.4448C15.1869 13.2236 14.8681 13.175 14.6038 13.2841L14.5776 13.2944L14.586 13.2712C14.6252 13.1661 14.6502 12.8306 14.366 12.599C14.2274 12.4859 14.0538 12.4441 13.8778 12.4621C13.5502 12.4957 13.2982 12.7209 12.612 13.4906C12.4047 13.7228 12.1033 14.0895 11.9225 14.3266L13.8073 16.1254C14.432 15.43 14.6866 15.1712 15.1791 14.6493ZM12.7199 14.2093C13.099 13.7421 13.5026 13.3183 13.6855 13.1505C13.7434 13.0977 13.806 13.0448 13.8823 13.024C14.0062 12.9898 14.1339 13.0784 14.1626 13.2061C14.1915 13.3345 14.1113 13.4564 14.0221 13.5569C13.8214 13.7849 13.0852 14.5594 13.0852 14.5594L12.7196 14.2093H12.7199ZM13.458 14.9139C13.458 14.9139 14.1749 14.1512 14.4091 13.9074C14.5019 13.8105 14.5616 13.7516 14.6258 13.7201C14.7083 13.6794 14.7988 13.6712 14.8798 13.7253C14.9591 13.7791 14.9959 13.871 14.976 13.9627C14.9522 14.0718 14.8636 14.1757 14.7906 14.2551L13.8401 15.2784L13.458 14.9139Z" fill="white"/>
<path d="M19.7858 13.4658V19.9729H13.3172C13.3172 16.3768 16.211 13.4658 19.7858 13.4658ZM26.2544 19.9729C26.2544 23.5693 23.3607 26.48 19.7858 26.48V19.9729H26.2544Z" fill="white"/>
</g>
<defs>
<clipPath id="clip0_3491_19569">
<rect width="22" height="22" fill="white" transform="translate(8.75 9)"/>
</clipPath>
</defs>
</svg>
