<svg width="40" height="40" viewBox="0 0 40 40" fill="none" xmlns="http://www.w3.org/2000/svg">
<rect width="40" height="40" rx="10" fill="#0F172A"/>
<g clip-path="url(#clip0_3491_19497)">
<path d="M25.961 8.00146C26.3757 8.00146 26.711 8.33341 26.711 8.74394V31.2343C26.711 31.6445 26.3757 31.9768 25.961 31.9768H12.5315C12.1172 31.9768 11.7819 31.6446 11.7819 31.2343V8.74394C11.7819 8.33341 12.1172 8.00146 12.5315 8.00146H25.961Z" fill="white"/>
<path d="M12.0733 11.3354H26.4293V31.1894C26.4293 31.3545 26.4011 31.4566 26.2898 31.5673C26.169 31.6875 26.0631 31.6982 25.8718 31.6982L12.502 31.6995C12.3966 31.6995 12.3158 31.6659 12.2286 31.5921C12.1206 31.4995 12.0733 31.384 12.0733 31.2619V11.3354Z" fill="#0F172A"/>
<path d="M26.4293 10.3369H12.0733V11.3569H26.4293V10.3369Z" fill="#0F172A"/>
<path d="M26.4293 9.31494H12.0733V10.335H26.4293V9.31494Z" fill="white"/>
<path d="M12.4792 8.27734H26.014C26.2308 8.27734 26.4307 8.48645 26.4307 8.69054V9.34168H12.0733L12.0746 8.76904V8.72139C12.0746 8.49051 12.2524 8.30017 12.4792 8.27734Z" fill="#0F172A"/>
<path d="M25.961 8.00146C26.3757 8.00146 26.711 8.33341 26.711 8.74394V31.2343C26.711 31.6445 26.3757 31.9768 25.961 31.9768H12.5315C12.1172 31.9768 11.7819 31.6446 11.7819 31.2343V8.74394C11.7819 8.33341 12.1172 8.00146 12.5315 8.00146H25.961ZM25.961 8.29784H12.5315C12.2826 8.29784 12.0814 8.49787 12.0814 8.74394V31.2343C12.0814 31.4807 12.2826 31.6794 12.5315 31.6794H25.961C26.21 31.6794 26.4112 31.4807 26.4112 31.2343V8.74394C26.4112 8.49792 26.21 8.29784 25.961 8.29784Z" fill="white"/>
<path d="M18.9823 12.5957C18.9823 12.5957 18.9732 12.6823 18.9535 12.733C18.934 12.7799 18.8834 12.8115 18.8867 12.843C18.8901 12.8739 18.923 12.9112 18.9739 12.937C19.0239 12.9632 19.044 12.9833 19.0953 12.9964C19.1429 13.0082 19.2033 13.0431 19.2204 13.0031C19.2376 12.9625 19.2118 12.9132 19.1829 12.8659C19.1326 12.7833 19.1071 12.7631 19.033 12.6497C19.0172 12.6252 19.0048 12.599 18.9823 12.5957Z" fill="white"/>
<path d="M18.6063 21.5155C18.6113 21.5007 18.7301 21.5759 18.7918 21.6122C18.9216 21.69 18.9799 21.7363 19.0947 21.8223C19.1856 21.8914 19.2295 21.927 19.3207 22.0055C19.4327 22.1022 19.4931 22.1848 19.5233 22.166C19.5669 22.1136 19.4519 21.9605 19.3502 21.8774C19.2513 21.7954 19.149 21.729 19.0702 21.6773C18.9685 21.6095 18.9595 21.594 18.8076 21.492C18.6442 21.3826 18.5034 21.245 18.5034 21.245L18.3447 21.1202L18.0962 20.9104L17.8198 20.6556L17.6112 20.423C17.6112 20.423 17.4489 20.2243 17.4231 20.186C17.3969 20.1481 17.3204 20.0252 17.2574 19.9212C17.201 19.8279 17.0917 19.6829 17.0816 19.6705C17.0226 19.5989 16.8878 19.6278 16.7311 19.5355C16.5409 19.4231 16.495 19.3204 16.495 19.3204C16.495 19.3204 16.4879 19.3053 16.4806 19.2972C16.4735 19.2888 16.4591 19.2784 16.4591 19.2784L16.3595 19.209L16.3024 19.1714C16.3024 19.1714 16.2592 19.1354 16.2048 19.1123C16.1502 19.0881 16.0284 19.0173 16.0284 19.0173L15.8107 18.8783C15.8107 18.8783 15.7255 18.8099 15.6974 18.7871C15.6685 18.7652 15.6149 18.734 15.6149 18.734C15.6149 18.734 15.5806 18.7169 15.5703 18.7162C15.5599 18.7155 15.5146 18.7115 15.5146 18.7115C15.5146 18.7115 15.4727 18.7004 15.4301 18.7505C15.3875 18.8008 15.3979 18.774 15.4673 19.0572C15.4948 19.1687 15.4921 19.5617 15.5216 19.6815C15.5592 19.8352 15.6672 20.034 15.6783 20.0574C15.689 20.0806 15.6967 20.1665 15.6967 20.1665C15.6967 20.1665 15.692 20.236 15.6994 20.28C15.7323 20.4831 16.0291 20.3494 16.0946 20.6281C16.159 20.903 16.056 21.1772 16.056 21.1772C16.056 21.1772 15.9922 21.3135 15.902 21.3349C15.8121 21.3558 15.6726 21.1564 15.5717 20.995C15.4721 20.8362 15.3906 20.6281 15.3644 20.562C15.3382 20.4958 15.3245 20.4814 15.2943 20.4334C15.2497 20.3619 15.2138 20.375 15.1638 20.2622C15.1135 20.1495 15.1581 20.1041 15.1357 20.0058C15.1226 19.9514 15.1108 19.9454 15.0938 19.8675C15.0773 19.79 15.0552 19.5433 15.0552 19.5433L15.0236 19.3137C15.0236 19.3137 15.0126 19.209 14.9982 19.1432C14.9482 18.9136 14.9308 18.6914 14.9308 18.6914L14.9214 18.6001L14.918 18.5058C14.918 18.5058 14.915 18.4605 14.9261 18.4138C14.9372 18.3672 14.9597 18.3286 14.9597 18.3286C14.9597 18.3286 15.006 18.2511 15.014 18.2316C15.0217 18.2131 15.1163 18.1031 15.1163 18.1031C15.1163 18.1031 15.1659 18.0618 15.2468 18.0124C15.328 17.9631 15.4007 17.9664 15.4007 17.9664C15.4007 17.9664 15.4222 17.9644 15.5658 17.9822C15.7093 18 16.0045 18.0785 16.079 18.0977C16.1524 18.1175 16.2403 18.1484 16.2973 18.1802C16.4613 18.2695 16.5109 18.2316 16.3805 18.1293C16.2926 18.0605 16.2678 18.0296 16.197 17.9652C16.1373 17.9101 16.0903 17.8735 16.0457 17.8228C16.0011 17.7711 15.874 17.5835 15.874 17.5835L15.7945 17.466C15.7945 17.466 15.7519 17.4177 15.7449 17.4143C15.7382 17.4103 15.7167 17.3939 15.7167 17.3939C15.7167 17.3939 15.6641 17.3965 15.6097 17.3861C15.5547 17.3751 15.5292 17.4523 15.5292 17.4523C15.5292 17.4523 15.4111 17.6728 15.2911 17.8078C15.0965 18.0269 14.957 18.176 14.8856 18.2927C14.7853 18.4545 14.8074 18.6318 14.7558 18.7137C14.7256 18.7617 14.7092 18.7687 14.6927 18.8107C14.6424 18.9379 14.8252 19.0077 14.7833 19.1486C14.7165 19.3722 14.1933 19.5934 14.1239 19.5564C14.0517 19.5185 14.1108 19.2161 14.1349 19.1184C14.1597 19.0201 14.2332 18.8751 14.2399 18.8677C14.2463 18.8607 14.2641 18.8264 14.2694 18.7976C14.2751 18.7687 14.2771 18.7033 14.2805 18.667C14.2838 18.6304 14.2989 18.5727 14.2989 18.5727C14.2989 18.5727 14.3009 18.5603 14.3472 18.46C14.3938 18.3589 14.5642 18.124 14.6863 17.8997C14.7668 17.7534 14.8003 17.6648 14.8808 17.5181C14.955 17.3835 15.0821 17.1781 15.0821 17.1781C15.0821 17.1781 15.1357 17.0734 15.1609 17.0344C15.1864 16.9945 15.24 16.919 15.2903 16.8444C15.341 16.7703 15.3534 16.7145 15.4194 16.6535C15.4741 16.6024 15.5114 16.5753 15.5828 16.5524C15.6891 16.5172 15.7619 16.536 15.8706 16.5662C15.9832 16.5971 16.0607 16.6488 16.1345 16.7099C16.208 16.7717 16.2627 16.8398 16.2627 16.8398L16.2985 16.8928L16.3207 16.9059L16.3891 16.9499L16.5457 17.0536C16.5457 17.0536 16.9174 17.3066 16.9382 17.3204C16.958 17.3335 17.0247 17.3882 17.0378 17.3926C17.0516 17.3966 17.1505 17.2891 17.3447 17.1553C17.5694 16.9992 17.6489 17.0109 17.7234 16.9703C17.7968 16.9297 17.827 16.8962 17.8848 16.8384C17.972 16.7512 17.9726 16.7045 18.0716 16.5827C18.1712 16.4612 18.2644 16.393 18.2644 16.393C18.2644 16.393 18.2782 16.3793 18.4556 16.1786C18.6327 15.9785 18.7112 15.8271 18.7112 15.8271L18.8085 15.6321C18.8085 15.6321 18.9493 15.329 18.9946 15.2092C19.0402 15.089 19.0402 15.0491 19.0402 15.0491C19.0402 15.0491 19.0469 15.0175 19.0127 14.9564C18.9775 14.8956 18.9412 14.9232 18.8738 14.937C18.7447 14.9645 18.6662 14.9309 18.5358 14.9081C18.4164 14.8883 18.354 14.8524 18.2342 14.8326C18.1128 14.8121 18.0421 14.792 17.9203 14.8037C17.9018 14.8058 17.8647 14.8135 17.8468 14.8195C17.7781 14.8423 17.759 14.8477 17.708 14.8772C17.6489 14.9048 17.61 14.9135 17.5446 14.9152C17.4993 14.9165 17.4719 14.9179 17.43 14.9014C17.4011 14.8903 17.3847 14.8819 17.3618 14.8615C17.3481 14.849 17.3407 14.841 17.3303 14.8249C17.329 14.8121 17.325 14.8128 17.3374 14.792C17.3495 14.7708 17.3645 14.7671 17.3645 14.7671L17.4202 14.7534C17.4202 14.7534 17.4987 14.7329 17.5061 14.7309C17.5132 14.7289 17.5879 14.7047 17.6208 14.6943C17.654 14.6839 17.6902 14.6648 17.6902 14.6648C17.6902 14.6648 17.7103 14.6326 17.7026 14.6141C17.6929 14.5932 17.6483 14.5913 17.6483 14.5913C17.6483 14.5913 17.5859 14.6141 17.5789 14.6161C17.5722 14.6175 17.4725 14.649 17.4725 14.649C17.4725 14.649 17.3944 14.6661 17.3337 14.6805C17.2726 14.6943 17.1854 14.7013 17.1854 14.7013L17.1593 14.6943C17.1593 14.6943 17.1297 14.6745 17.1251 14.6537C17.1207 14.6352 17.118 14.6214 17.1147 14.6003C17.1016 14.5231 17.0858 14.4764 17.1043 14.4003C17.1113 14.3684 17.1187 14.3506 17.1324 14.3211C17.1442 14.2966 17.1519 14.2825 17.167 14.2593L17.215 14.1808L17.3056 14.0468C17.3367 14.0153 17.3572 13.9995 17.3964 13.9774C17.4541 13.9452 17.4876 13.9361 17.5598 13.928C17.6305 13.9203 17.6403 13.921 17.7406 13.8985C17.8415 13.8756 17.913 13.8357 17.913 13.8357C17.913 13.8357 18.1541 13.7471 18.301 13.6749C18.4549 13.5994 18.522 13.5188 18.6814 13.4564C18.7488 13.4303 18.788 13.4178 18.8574 13.4001C18.8662 13.3943 18.8705 13.389 18.8732 13.3785C18.8799 13.3534 18.841 13.3416 18.8142 13.3443C18.79 13.3463 18.735 13.3718 18.7226 13.3443C18.7132 13.3232 18.7729 13.3107 18.7729 13.3107C18.7729 13.3107 18.8011 13.2976 18.8018 13.2819C18.8025 13.2577 18.7612 13.2735 18.7427 13.2715C18.6491 13.261 18.6418 13.2439 18.577 13.2282C18.5009 13.2091 18.4597 13.1855 18.3805 13.1822C18.3107 13.1795 18.2453 13.1943 18.2014 13.2047C18.1582 13.2157 18.1568 13.1731 18.1739 13.1647C18.2963 13.1076 18.299 13.1029 18.3856 13.0989C18.4328 13.0969 18.4989 13.107 18.5063 13.1107C18.5134 13.1147 18.6079 13.11 18.6321 13.0852C18.6569 13.061 18.5546 13.0624 18.5063 13.0432C18.4617 13.0254 18.3936 13.0204 18.395 12.9908C18.3973 12.9613 18.4302 12.9777 18.4537 12.9717C18.4831 12.9647 18.5003 12.9653 18.5305 12.9613C18.5848 12.954 18.5895 12.9489 18.67 12.9422C18.7495 12.9345 18.8642 12.9684 18.8642 12.9684C18.8642 12.9684 18.9846 13.0218 19.0436 13.05C19.1027 13.0775 19.1741 13.0919 19.1741 13.0919C19.1741 13.0919 19.2579 13.1037 19.3217 13.0637C19.3864 13.0241 19.3499 12.9979 19.3274 12.9614C19.3052 12.9271 19.2771 12.8775 19.3183 12.7835C19.3549 12.7016 19.374 12.6059 19.3844 12.5972C19.3975 12.5868 19.4482 12.6603 19.481 12.6905C19.5987 12.8006 19.7544 12.855 19.9013 13.0852C19.9127 13.1037 19.967 13.0741 20.1374 13.1003C20.3078 13.1265 20.4567 13.3091 20.4943 13.3528C20.5333 13.3967 20.5835 13.3943 20.5835 13.3943L20.6654 13.4054L20.9625 13.4104C20.9625 13.4104 21.0974 13.3863 21.1752 13.4159C21.2295 13.4363 21.4106 13.5575 21.3281 13.6034C21.2704 13.6357 21.2161 13.5649 21.1638 13.5615C21.102 13.5575 21.0752 13.5692 21.0202 13.583C20.9048 13.6119 20.6573 13.6867 20.7472 13.7169C20.7539 13.7196 20.7666 13.7216 20.7666 13.7216L20.8109 13.7293C20.8109 13.7293 20.9196 13.7541 20.9853 13.78C21.0845 13.8192 21.1316 13.8626 21.2228 13.9162C21.2751 13.9464 21.2979 13.9767 21.3549 13.9938C21.4072 14.0089 21.4408 13.9938 21.4944 14.0028C21.5649 14.0153 21.6044 14.0297 21.6689 14.0606C21.7647 14.1066 21.7996 14.1623 21.8855 14.224C21.9284 14.2552 21.9646 14.26 21.9968 14.3019C22.0043 14.3113 22.0103 14.3164 22.0137 14.3274C22.0251 14.3657 21.9506 14.3432 21.911 14.3368C21.8674 14.3295 21.8493 14.308 21.8091 14.2895C21.7494 14.2613 21.7212 14.2304 21.6561 14.2187C21.6092 14.2096 21.581 14.2167 21.5327 14.2193C21.4858 14.2213 21.4609 14.2284 21.4139 14.2291C21.3341 14.2304 21.2892 14.2234 21.2107 14.2069C21.1228 14.1885 21.0792 14.1542 20.992 14.1361C20.8934 14.1156 20.719 14.031 20.7358 14.1156C20.7445 14.1562 20.837 14.1904 20.837 14.1904C20.837 14.1904 20.9008 14.2247 20.9611 14.2515C21.0215 14.2777 21.055 14.3177 21.055 14.3177L21.0966 14.3486C21.0966 14.3486 21.1395 14.4077 21.1959 14.4744C21.2509 14.5402 21.3488 14.5382 21.3488 14.5382C21.3488 14.5382 21.4079 14.5382 21.5353 14.5644C21.6621 14.5905 21.7929 14.669 21.7929 14.669C21.7929 14.669 21.8915 14.7369 21.9492 14.805C22.0062 14.8732 21.9733 14.9074 21.966 14.9144C21.9593 14.9218 21.9619 14.9184 21.9539 14.9218C21.9472 14.9251 21.8761 14.8359 21.8761 14.8359L21.8251 14.7926C21.8251 14.7926 21.7755 14.7577 21.7111 14.7369C21.6467 14.7164 21.6252 14.7301 21.6252 14.7301C21.6252 14.7301 21.4884 14.7684 21.369 14.765C21.2509 14.7617 21.1892 14.7143 21.1892 14.7143L21.1141 14.664C21.1141 14.664 21.0014 14.5583 20.9973 14.6083C20.9946 14.6422 21.047 14.6798 21.047 14.6798C21.047 14.6798 21.0832 14.7163 21.1074 14.7396C21.153 14.7845 21.1718 14.807 21.2241 14.8536C21.2764 14.9007 21.3086 14.9007 21.3086 14.9007C21.3086 14.9007 21.3368 14.9073 21.3475 14.9094C21.3583 14.9114 21.377 14.9165 21.377 14.9165C21.377 14.9165 21.3945 14.9232 21.4763 14.9564C21.5574 14.9893 21.6453 15.0608 21.6453 15.0608C21.6453 15.0608 21.6534 15.0675 21.6655 15.0699C21.6775 15.0712 21.7017 15.0833 21.7084 15.0853C21.7158 15.087 21.7366 15.087 21.7835 15.0937C21.8312 15.1008 21.8131 15.131 21.8131 15.131L21.805 15.1424L21.766 15.1685C21.766 15.1685 21.7158 15.183 21.6815 15.1846C21.6467 15.1867 21.597 15.1672 21.597 15.1672L21.4917 15.1276C21.4917 15.1276 21.3851 15.0994 21.3622 15.0957C21.3394 15.0924 21.2442 15.0732 21.2281 15.0699C21.2127 15.0662 21.165 15.0491 21.1523 15.0417C21.1395 15.0347 21.1161 15.03 21.0584 15.0018C21.0014 14.9736 20.9785 14.941 20.9075 14.9185C20.8357 14.8957 20.7921 14.891 20.7384 14.9283C20.6458 14.992 20.8779 15.0025 20.9933 15.0602C21.1637 15.1441 21.2596 15.2058 21.2999 15.2965C21.3408 15.3874 21.3817 15.4203 21.3817 15.4203C21.3817 15.4203 21.5018 15.4808 21.5554 15.5442C21.585 15.5784 21.589 15.6066 21.6185 15.6408C21.6842 15.718 21.8117 15.7137 21.8372 15.7791C21.8614 15.8402 21.7339 15.8127 21.6675 15.8066C21.5481 15.7949 21.5192 15.6854 21.4078 15.6415C21.3448 15.6163 21.3046 15.6163 21.2401 15.5942C21.1227 15.5556 21.0678 15.5049 20.9503 15.4683C20.8792 15.4465 20.7504 15.3529 20.7665 15.425C20.7692 15.4425 20.7799 15.4559 20.7846 15.4663C20.7907 15.4767 20.8202 15.515 20.8202 15.515C20.8202 15.515 20.8597 15.5673 20.8778 15.5811C20.8946 15.5956 20.9704 15.6526 21.0791 15.7117C21.1864 15.7708 21.2803 15.8842 21.2803 15.8842C21.2803 15.8842 21.3125 15.9306 21.328 15.9628C21.344 15.9991 21.3326 16.0101 21.3581 16.0605C21.3816 16.1105 21.393 16.1202 21.4252 16.1511C21.5043 16.2273 21.5875 16.2122 21.6881 16.2535C21.7156 16.2652 21.7176 16.2692 21.7472 16.3008C21.7767 16.332 21.7418 16.3454 21.7418 16.3454C21.7418 16.3454 21.6298 16.3743 21.5573 16.3682C21.4634 16.3608 21.4211 16.3319 21.3299 16.2863C21.2373 16.241 21.1891 16.1594 21.1797 16.1544C21.1716 16.149 21.1488 16.1249 21.1314 16.1124C21.114 16.1001 21.069 16.0906 21.0287 16.0795C20.9878 16.0685 20.965 16.0665 20.9241 16.0554C20.8684 16.0396 20.8107 16.0151 20.7845 16.0067C20.7584 15.9976 20.6987 15.9869 20.6551 16.0127C20.5679 16.0644 20.7906 16.0993 20.8597 16.1735C20.8952 16.2108 20.91 16.237 20.9435 16.2763C20.969 16.3065 20.9798 16.3276 21.0113 16.3511C21.0327 16.3668 21.0723 16.384 21.0723 16.384C21.0723 16.384 21.126 16.4088 21.2045 16.4521C21.2829 16.4954 21.3748 16.6179 21.3748 16.6179L21.4305 16.7032L21.4634 16.7518L21.4721 16.7743L21.4841 16.8018C21.4841 16.8018 21.5244 16.8542 21.5539 16.8713C21.5835 16.8891 21.5781 16.9045 21.5781 16.9045C21.5781 16.9045 21.5748 16.9153 21.5539 16.9271C21.5338 16.9395 21.5224 16.9291 21.4929 16.9203C21.4634 16.912 21.4439 16.8838 21.4185 16.8633C21.3916 16.8418 21.3634 16.7898 21.3158 16.7602C21.2736 16.7347 21.2186 16.7257 21.1971 16.7189C21.1763 16.7113 21.124 16.6784 21.1032 16.6693C21.0831 16.6612 21.0287 16.6364 21.0287 16.6364C21.0287 16.6364 20.9241 16.578 20.8664 16.5623C20.8087 16.5461 20.8456 16.5814 20.8456 16.5814C20.8456 16.5814 20.8973 16.6619 20.9468 16.6941C21.0113 16.7368 21.1018 16.7744 21.0723 16.8089C21.0522 16.8314 21.0253 16.8233 20.9958 16.82C20.9475 16.8143 20.8892 16.7565 20.8892 16.7565C20.8892 16.7565 20.865 16.7408 20.757 16.7065C20.6497 16.6713 20.6893 16.7303 20.7141 16.7622C20.7383 16.7931 20.7712 16.8109 20.7712 16.8109L20.8443 16.8438L20.8778 16.8542C20.8778 16.8542 20.9074 16.8595 21.0046 16.8824C21.1019 16.9045 21.1556 16.9519 21.1556 16.9519C21.1556 16.9519 21.2079 17.0005 21.2803 17.0543C21.3541 17.1086 21.4265 17.1224 21.4668 17.1278C21.507 17.1328 21.5057 17.161 21.5057 17.161C21.5057 17.161 21.511 17.1869 21.5084 17.1952C21.5071 17.204 21.4984 17.211 21.4896 17.211C21.4815 17.211 21.4776 17.2144 21.4668 17.2201C21.4561 17.2255 21.4145 17.2322 21.4145 17.2322C21.4145 17.2322 21.3058 17.2288 21.22 17.2077C21.1355 17.1869 21.0603 17.1278 21.0522 17.1245C21.0456 17.1211 20.9664 17.0772 20.9114 17.0597C20.8584 17.0419 20.7732 17.0496 20.7638 17.053C20.7551 17.0563 20.7256 17.0611 20.6753 17.0758C20.6243 17.0892 20.688 17.1087 20.688 17.1087L20.7242 17.112L20.8108 17.1187C20.8108 17.1187 20.9007 17.1291 20.9765 17.1573C21.0522 17.1849 21.1019 17.2406 21.1522 17.2916C21.2025 17.3416 21.2582 17.3745 21.2582 17.3745L21.2985 17.4007L21.3193 17.4164L21.3246 17.4302C21.3246 17.4302 21.3226 17.4372 21.3193 17.4459C21.3159 17.455 21.3032 17.4617 21.3032 17.4617C21.3032 17.4617 21.2844 17.4583 21.2764 17.4583C21.2669 17.4583 21.21 17.4281 21.1677 17.4097C21.1241 17.3906 21.1019 17.3724 21.055 17.361C21.0147 17.3512 20.9611 17.3469 20.949 17.3506C20.9369 17.3539 20.8483 17.3664 20.7799 17.3711C20.7116 17.3764 20.6525 17.3774 20.572 17.3677C20.4573 17.3539 20.305 17.2633 20.2855 17.2885C20.246 17.3415 20.3667 17.3566 20.4258 17.3905C20.5063 17.4372 20.6458 17.4791 20.6458 17.4791C20.6458 17.4791 20.7477 17.5016 20.8074 17.5298C20.9383 17.5906 20.9778 17.6805 21.0832 17.7752C21.1408 17.8282 21.1878 17.851 21.2656 17.8624C21.3327 17.8722 21.3314 17.8641 21.4373 17.8433C21.544 17.8222 21.6084 17.7211 21.6392 17.7581C21.6453 17.7652 21.6426 17.7719 21.6412 17.7823C21.6392 17.7927 21.6306 17.8118 21.6306 17.8118C21.6306 17.8118 21.6185 17.8289 21.5997 17.8484C21.5802 17.8675 21.5071 17.9075 21.4689 17.9232C21.4306 17.939 21.3368 17.9652 21.2187 17.9615C21.1006 17.9581 20.9343 17.8675 20.9343 17.8675L20.8149 17.8171C20.8149 17.8171 20.7599 17.7913 20.7223 17.7772C20.623 17.7396 20.56 17.743 20.458 17.7161C20.3949 17.699 20.3534 17.6812 20.2964 17.6695C20.2387 17.6571 20.2715 17.6799 20.2769 17.6879C20.3037 17.7245 20.3399 17.7362 20.3856 17.7574C20.446 17.7869 20.4882 17.7809 20.5499 17.8071C20.619 17.835 20.6794 17.8743 20.7177 17.8991C20.7552 17.9233 20.7834 17.9508 20.8203 17.9891L20.9471 18.0978C20.9471 18.0978 20.9766 18.122 20.9799 18.1321C20.9833 18.1425 20.9973 18.1686 20.9907 18.2106C20.9833 18.2526 20.9491 18.2231 20.9491 18.2231L20.9155 18.2016L20.882 18.1707L20.8289 18.1267C20.8289 18.1267 20.7834 18.0854 20.7048 18.0455C20.627 18.0049 20.5331 17.9948 20.5331 17.9948C20.5331 17.9948 20.4499 17.9824 20.4526 18.0086C20.4566 18.0344 20.4753 18.0368 20.5411 18.0539C20.6075 18.071 20.6511 18.1046 20.6511 18.1046C20.6511 18.1046 20.7189 18.1549 20.7678 18.2106C20.8161 18.2664 20.8302 18.3204 20.8302 18.3204C20.8302 18.3204 20.8551 18.366 20.9175 18.4264C20.9799 18.4875 21.0127 18.4664 21.0093 18.496C21.006 18.5255 20.9785 18.5309 20.9785 18.5309C20.9785 18.5309 20.9624 18.5295 20.9557 18.5295C20.949 18.5295 20.9329 18.5204 20.9154 18.5137C20.898 18.507 20.8323 18.4613 20.8323 18.4613C20.8323 18.4613 20.729 18.3775 20.7176 18.3694C20.7048 18.3603 20.6076 18.2875 20.6076 18.2875C20.6076 18.2875 20.5499 18.2506 20.5089 18.2298C20.4667 18.2093 20.411 18.1878 20.3795 18.1774C20.3486 18.1673 20.2909 18.164 20.2909 18.164C20.2909 18.164 20.2218 18.1536 20.1796 18.1378C20.1132 18.1123 20.036 18.0414 20.0273 18.0381C20.0179 18.0344 19.9562 18.0132 19.9441 18.0153C19.9321 18.0166 19.9039 18.1334 19.8972 18.2009C19.869 18.4835 19.9441 18.6711 20.0608 18.9303C20.2292 19.3068 20.6981 19.7751 20.6981 19.7751C20.6981 19.7751 20.8162 19.8419 20.8658 19.8818C21.006 19.9916 21.2381 20.147 21.4441 20.3524C21.6198 20.5286 21.8533 20.8411 21.8533 20.8411C21.8533 20.8411 21.9887 21.0297 22.0518 21.1633C22.1283 21.3271 22.1901 21.5769 22.1901 21.5769C22.1901 21.5769 22.1954 21.6198 22.1994 21.6292C22.2048 21.6379 22.2168 21.6493 22.2249 21.6493L22.3067 21.652C22.3148 21.652 22.408 21.6454 22.4698 21.6299C22.5308 21.6144 22.6757 21.548 22.7723 21.4977C22.8675 21.4466 22.9823 21.3499 22.9823 21.3499C22.9823 21.3499 23.0044 21.3311 23.1158 21.2063C23.2285 21.0815 23.3009 20.8942 23.3284 20.8233C23.3553 20.7532 23.3774 20.6179 23.3935 20.387C23.4109 20.1551 23.3794 19.9107 23.3794 19.9107C23.3794 19.9107 23.3372 19.5697 23.3116 19.4535C23.2861 19.3381 23.2244 19.1488 23.2244 19.1488C23.2244 19.1488 23.1815 18.9803 23.1681 18.8739C23.154 18.7675 23.152 18.5943 23.152 18.5943C23.152 18.5943 23.152 18.4883 23.1862 18.2923C23.2217 18.0972 23.3412 17.9005 23.3412 17.9005C23.3412 17.9005 23.3747 17.8344 23.5036 17.68C23.6357 17.5219 23.6779 17.4971 23.8081 17.4027C23.9114 17.3285 24.0448 17.2091 24.0885 17.2373C24.1368 17.2675 24.0415 17.3279 24.0093 17.3594C23.9281 17.44 23.7766 17.5823 23.6538 17.7968C23.5465 17.9824 23.5062 18.1052 23.4794 18.2264C23.4525 18.3473 23.464 18.4802 23.4674 18.5255C23.4714 18.5708 23.4962 18.5544 23.4962 18.5544C23.4962 18.5544 23.7571 18.3446 23.8987 18.1858C24.0523 18.014 24.1891 17.7082 24.2427 17.7055C24.279 17.7032 24.2958 17.7851 24.287 17.823C24.2536 17.9817 24.2422 18.0016 24.1904 18.1069C24.1314 18.2278 24.0765 18.2815 23.9946 18.3929C23.9087 18.5097 23.8665 18.5544 23.7974 18.7091C23.6975 18.9316 23.7558 19.1035 23.7558 19.1035C23.7558 19.1035 23.7679 19.2079 23.8148 19.2065C23.8934 19.2038 24.0657 18.986 24.1784 18.8077C24.2617 18.6772 24.2918 18.5261 24.3462 18.4469C24.3958 18.3768 24.4394 18.5611 24.4179 18.6698C24.3931 18.799 24.3294 18.9152 24.1892 19.0981C24.0524 19.2766 24.0564 19.4465 24.0564 19.4465C24.0564 19.4465 24.0423 19.524 24.0309 19.6932C24.0202 19.8616 24.0685 20.1175 24.0685 20.1175C24.0685 20.1175 24.1113 20.3313 24.1201 20.4934C24.1282 20.6565 24.1228 21.0267 23.9705 21.315C23.9101 21.4305 23.7806 21.5903 23.7806 21.5903C23.7806 21.5903 23.6807 21.693 23.5988 21.7527C23.5169 21.8125 23.3204 21.9058 23.3204 21.9058C23.3204 21.9058 23.1843 21.9528 23.1655 21.9568C23.1453 21.9622 23.1333 21.979 23.1333 21.979C23.1333 21.979 23.1453 22.0052 23.1507 22.0159C23.1554 22.0267 23.1936 22.1206 23.1936 22.1206C23.1936 22.1206 23.2345 22.2535 23.25 22.3589C23.2654 22.4643 23.2473 22.4885 23.2326 22.5691C23.2178 22.6463 23.1843 22.6106 23.1755 22.7624C23.1682 22.8967 23.2285 22.9637 23.2178 23.1142C23.2132 23.18 23.1386 23.0309 23.1024 22.9679C23.0259 22.8308 23.044 22.6201 23.0427 22.5677C23.0407 22.5154 23.0366 22.4576 23.0172 22.3919C22.9937 22.3059 22.9582 22.2395 22.9186 22.1871C22.8783 22.1354 22.8361 22.1059 22.822 22.1113C22.8079 22.116 22.8065 22.1435 22.8065 22.1569C22.8058 22.1717 22.834 22.2214 22.8401 22.2321C22.8474 22.2422 22.8978 22.3342 22.8978 22.3342C22.8978 22.3342 22.9199 22.4053 22.9286 22.5437C22.9374 22.6806 22.8951 22.8511 22.8951 22.8511C22.8951 22.8511 22.84 23.0424 22.7824 23.1552C22.7179 23.2794 22.5751 23.4485 22.5751 23.4485C22.5751 23.4485 22.4724 23.5425 22.3953 23.6969C22.3195 23.8513 22.3846 23.9185 22.3564 23.9386C22.3268 23.958 22.2665 23.8493 22.2504 23.7761C22.2349 23.7077 22.2423 23.6754 22.2705 23.5989C22.2967 23.525 22.3584 23.4183 22.3584 23.4183L22.4503 23.2619C22.4503 23.2619 22.5617 23.0498 22.5965 22.8953C22.6314 22.7423 22.5912 22.5718 22.5912 22.5718C22.5912 22.5718 22.5865 22.5154 22.5483 22.5181C22.5093 22.5201 22.4826 22.5537 22.4664 22.5946C22.4349 22.6792 22.4799 22.6638 22.4315 22.8047C22.394 22.9155 22.3832 22.9007 22.3631 22.9665C22.3389 23.045 22.3262 23.1256 22.3276 23.1746C22.3296 23.2229 22.3028 23.2028 22.3028 23.2028C22.3028 23.2028 22.2558 23.1155 22.2558 23.0068C22.2558 22.9477 22.2585 22.9142 22.2652 22.8551C22.276 22.7604 22.3149 22.6154 22.3149 22.6154C22.3149 22.6154 22.3565 22.4724 22.3477 22.3422C22.3377 22.2106 22.2921 22.1865 22.2921 22.1865C22.2921 22.1865 22.2801 22.169 22.229 22.1717C22.1788 22.1758 22.1814 22.2664 22.1814 22.2664C22.1814 22.2664 22.166 22.396 22.1459 22.4765C22.0902 22.6987 22.0158 22.8155 21.8843 23.0028C21.7649 23.1719 21.6032 23.321 21.522 23.3908C21.4415 23.462 21.1933 23.6426 21.1933 23.6426L20.9022 23.8365C20.9022 23.8365 20.7868 23.9493 20.7344 24.0836C20.6808 24.2172 20.6835 24.3219 20.7143 24.4447C20.7452 24.5683 20.7895 24.6246 20.8129 24.6595C20.8357 24.6931 20.8807 24.7535 20.8955 24.8247C20.9049 24.8683 20.8982 24.8945 20.9008 24.9388C20.9036 24.9777 20.9089 24.9992 20.9076 25.0388C20.9062 25.1006 20.9176 25.1442 20.882 25.1945C20.8565 25.2328 20.7868 25.2664 20.7868 25.2664C20.7868 25.2664 20.7077 25.3012 20.6606 25.3301C20.1655 25.6288 19.9899 25.8228 19.7108 26.1558C19.6222 26.2625 19.6873 26.2559 19.5927 26.382C19.5354 26.4573 19.4029 26.4573 19.3549 26.5472C19.2882 26.67 19.5052 26.7909 19.2546 26.899C18.9317 27.0386 18.3759 26.9385 18.3648 26.8949C18.3346 26.7754 18.4735 26.6372 18.5228 26.5821C18.7488 26.3351 18.9508 26.329 19.0249 26.1243C19.041 26.0807 19.0346 26.0431 19.2147 25.9095C19.3411 25.8161 19.8463 25.4355 20.067 25.1818C20.1428 25.0945 20.2078 25.0368 20.2407 24.9428C20.2743 24.8474 20.2078 24.7877 20.2078 24.7877L20.1173 24.64L19.9435 24.3292C19.9435 24.3292 19.8705 24.1641 19.8309 24.0687C19.79 23.9734 19.7141 23.7169 19.7141 23.7169C19.7141 23.7169 19.6585 23.486 19.649 23.3356C19.6323 23.0658 19.6692 22.9087 19.7403 22.6469C19.8322 22.3072 20.0408 22.1649 20.124 21.8279C20.1482 21.7299 20.1535 21.5621 20.1039 21.5701C20.0569 21.5789 20.0529 21.7111 20.0167 21.7997C19.8825 22.134 19.7054 22.2804 19.6082 22.6267C19.5431 22.861 19.5163 23.0001 19.5169 23.243C19.5177 23.382 19.5123 23.3565 19.5478 23.5975C19.5619 23.6861 19.5833 23.7337 19.6095 23.8203C19.6283 23.8821 19.6786 23.9975 19.6786 23.9975C19.6786 23.9975 19.7477 24.1499 19.7719 24.2567C19.7792 24.2936 19.7887 24.3143 19.7859 24.3513C19.7812 24.4151 19.7926 24.4285 19.7618 24.4862C19.7236 24.5581 19.747 24.6004 19.6249 24.6272C19.5163 24.65 19.2942 24.5775 19.2942 24.5775C19.2942 24.5775 18.3816 24.3009 17.799 24.3808C17.6836 24.3962 17.6216 24.4385 17.5055 24.4365C17.3999 24.4352 17.3462 24.3526 17.2405 24.3842C17.2191 24.3902 17.2124 24.4056 17.1929 24.4184C17.0386 24.5258 17.1567 24.7044 16.7502 24.6117C16.5007 24.5546 16.1985 24.4017 16.2508 24.3056C16.3208 24.1781 16.4148 24.1572 16.612 24.076C16.823 23.9901 17.1396 24.0143 17.202 24.0102C17.2781 24.0042 17.3875 23.9512 17.5236 23.9478C17.7591 23.9437 17.801 23.972 17.801 23.972L18.2008 24.0075L18.9658 24.017C18.9658 24.017 19.1027 24.0069 19.157 23.9961C19.212 23.9853 19.2553 23.8773 19.2854 23.8256C19.315 23.7746 19.2841 23.6994 19.2841 23.6994L19.2614 23.6638L19.1885 23.5463L19.0541 23.3194L18.9048 23.0214C18.9048 23.0214 18.8072 22.814 18.7552 22.6777C18.7036 22.5421 18.6734 22.4656 18.6392 22.3253C18.6033 22.1809 18.5811 22.0641 18.5765 21.948C18.5708 21.7813 18.5597 21.6518 18.6063 21.5155Z" fill="white"/>
<path d="M23.573 21.2392C23.7339 21.0324 23.7494 20.8404 23.7588 20.5699C23.7661 20.3732 23.6918 20.0701 23.6918 20.0701L23.6816 20.0479C23.6816 20.0479 23.6535 20.0113 23.6361 20.0597C23.6388 20.1024 23.6442 20.1366 23.6442 20.1366L23.6535 20.5269C23.6535 20.5269 23.6414 20.7236 23.5744 20.9263C23.4617 21.2687 23.1625 21.4211 23.119 21.5446C23.0444 21.7493 23.3805 21.4882 23.573 21.2392Z" fill="white"/>
<path d="M21.8852 21.8706C21.8852 21.8706 21.8195 21.8894 21.8181 21.9545C21.8168 22.0197 21.8342 22.076 21.8322 22.1546C21.8309 22.2546 21.739 22.3701 21.798 22.4077C21.8993 22.4721 21.9865 22.0183 21.9557 21.9512C21.9248 21.884 21.8946 21.8699 21.8852 21.8706Z" fill="white"/>
<path d="M20.7489 25.0171C20.7489 25.0171 20.7301 25.0071 20.6932 25.0212C20.657 25.0352 20.6597 25.0729 20.6597 25.0729C20.6597 25.0729 20.6523 25.1132 20.6818 25.1172C20.7114 25.1226 20.7596 25.0501 20.7596 25.042C20.7596 25.0339 20.7489 25.0171 20.7489 25.0171Z" fill="white"/>
<path d="M19.6796 25.7774C19.6796 25.7774 19.6689 25.7881 19.6783 25.7955C19.6883 25.8042 19.7024 25.7935 19.7024 25.7935C19.7024 25.7935 19.8869 25.6492 19.9962 25.5478C20.1116 25.4391 20.278 25.2518 20.278 25.2518C20.278 25.2518 20.2894 25.2377 20.2767 25.2256C20.2632 25.2135 20.2317 25.2323 20.2055 25.2443C20.1827 25.2564 20.1693 25.2692 20.1519 25.2833C20.1358 25.2981 20.0808 25.3545 20.0808 25.3545L19.9385 25.4928L19.8486 25.5773L19.7615 25.6605L19.7252 25.7022C19.7252 25.7022 19.7158 25.7183 19.7132 25.7223C19.7105 25.727 19.7011 25.7391 19.7011 25.7391C19.7011 25.7391 19.6876 25.7519 19.6876 25.7559C19.6876 25.7593 19.6836 25.7626 19.6836 25.7667C19.6823 25.772 19.6796 25.7774 19.6796 25.7774Z" fill="white"/>
<path d="M19.3607 25.9869C19.3607 25.9869 19.3409 25.9708 19.3097 25.9862C19.2782 26.003 19.2447 26.0459 19.2419 26.0506C19.2389 26.0567 19.2218 26.0795 19.2336 26.0996C19.2453 26.1198 19.2852 26.0902 19.2912 26.0889C19.2969 26.0889 19.349 26.0473 19.349 26.0473C19.349 26.0473 19.3791 26.0284 19.3607 25.9869Z" fill="white"/>
<path d="M18.7499 26.6058C18.7499 26.6058 18.7237 26.5575 18.6895 26.5777C18.6553 26.5978 18.6365 26.6045 18.605 26.6481C18.5996 26.6555 18.5658 26.6992 18.5597 26.7106C18.5537 26.7213 18.5198 26.7858 18.5886 26.7905C18.7066 26.7971 18.6291 26.7213 18.6697 26.6918C18.7026 26.669 18.7643 26.675 18.765 26.6508C18.7656 26.6267 18.7499 26.6058 18.7499 26.6058Z" fill="white"/>
<path d="M16.657 24.1328C16.657 24.1328 16.5862 24.1503 16.5808 24.1745C16.5751 24.2 16.6221 24.2241 16.6295 24.2254C16.6378 24.2268 16.6536 24.2456 16.7009 24.2133C16.7475 24.1818 16.7455 24.155 16.7455 24.155C16.7455 24.155 16.773 24.1228 16.657 24.1328Z" fill="white"/>
<path d="M17.8081 24.0953C17.8081 24.0953 17.8074 24.0692 17.7574 24.0726C17.7065 24.0753 17.6957 24.0846 17.6944 24.0927C17.6927 24.1001 17.6971 24.1128 17.7423 24.1169C17.7883 24.1196 17.8067 24.1168 17.8081 24.0953Z" fill="white"/>
<path d="M18.8965 24.1268C18.8049 24.1261 18.8338 24.1288 18.7774 24.1315C18.6751 24.1368 18.6194 24.1328 18.5185 24.1261C18.3769 24.1167 18.1579 24.0818 18.1579 24.0818C18.1579 24.0818 18.1304 24.0751 18.1193 24.0932C18.1093 24.11 18.1462 24.1489 18.179 24.159C18.3585 24.2147 18.3682 24.2053 18.4903 24.2073C18.5584 24.208 18.5963 24.2012 18.664 24.1972C18.7499 24.1906 18.7898 24.204 18.8834 24.1791C18.9078 24.1731 18.9313 24.1275 18.8965 24.1268Z" fill="white"/>
<path d="M19.5096 23.9449C19.5096 23.9449 19.4911 23.9235 19.4532 23.9423C19.4157 23.9604 19.3929 24.0013 19.3929 24.0013C19.3929 24.0013 19.3751 24.0295 19.413 24.0255C19.4499 24.0202 19.4831 24.0041 19.4918 23.9987C19.5015 23.9932 19.529 23.9678 19.5096 23.9449Z" fill="white"/>
<path d="M18.9759 16.5806C18.9759 16.5806 19.2349 16.3379 19.4203 16.0171C19.5303 15.8257 19.5782 15.3803 19.4837 15.4911C19.4411 15.5418 19.3894 15.7727 19.3076 15.9438C19.1909 16.1875 18.9417 16.5326 18.9417 16.5326C18.9417 16.5326 18.8881 16.6474 18.9759 16.5806Z" fill="white"/>
<path d="M17.9409 17.1971C17.9409 17.1971 17.9134 17.2186 17.9258 17.2528C17.9389 17.2877 17.9916 17.2616 17.9916 17.2616C17.9916 17.2616 18.1113 17.2163 18.2367 17.2116C18.3625 17.2062 18.5369 17.2438 18.5369 17.2438C18.5369 17.2438 18.6201 17.2666 18.6339 17.2719C18.6476 17.2777 18.6929 17.2995 18.7006 17.3021C18.7073 17.3052 18.7506 17.3263 18.7747 17.3045C18.7989 17.2823 18.6235 17.1229 18.4444 17.0988C18.1462 17.0581 17.9503 17.1867 17.9503 17.1867L17.9409 17.1971Z" fill="white"/>
<path d="M16.7127 18.2479C16.7338 18.266 16.8334 18.0761 16.9165 17.9559C16.9776 17.868 17.089 17.7209 17.089 17.7209C17.089 17.7209 17.1393 17.6535 17.0541 17.6911C17.0196 17.7065 16.925 17.7787 16.8582 17.9113C16.8019 18.024 16.6905 18.2301 16.7127 18.2479Z" fill="white"/>
<path d="M16.0237 17.4228C16.0237 17.4228 16.0022 17.4963 16.0881 17.5882C16.1746 17.6806 16.1968 17.7567 16.2518 17.7017C16.2669 17.6866 16.1981 17.5624 16.1633 17.5279C16.1274 17.4936 16.1019 17.4654 16.1019 17.4654L16.0794 17.447L16.0505 17.4309L16.0341 17.4242C16.0341 17.4242 16.0297 17.4201 16.0237 17.4228Z" fill="white"/>
<path d="M15.7446 16.7178C15.7446 16.7178 15.6514 16.7352 15.6286 16.7805C15.6054 16.8259 15.7359 16.7983 15.7359 16.7983C15.7359 16.7983 15.8224 16.803 15.8245 16.7701C15.8265 16.7366 15.8134 16.7332 15.7446 16.7178Z" fill="white"/>
<path d="M14.2632 19.1747C14.2155 19.161 14.2075 19.2546 14.2011 19.2848C14.1957 19.315 14.2226 19.3754 14.2336 19.3754C14.2444 19.3747 14.2823 19.3157 14.2843 19.2869C14.2863 19.2573 14.3051 19.1878 14.2632 19.1747Z" fill="white"/>
<path d="M15.8017 21.0045C15.8017 21.0045 15.7165 20.937 15.7034 20.9638C15.6907 20.9907 15.7735 21.1092 15.7735 21.1092C15.7735 21.1092 15.799 21.1481 15.8382 21.1306C15.8768 21.1119 15.8631 21.0689 15.8631 21.0689C15.8631 21.0689 15.8369 21.0139 15.8017 21.0045Z" fill="white"/>
<path d="M15.1594 19.0259C15.1594 19.0259 15.1376 19.0202 15.1299 19.0464C15.1218 19.0726 15.1225 19.1152 15.1168 19.1669C15.1121 19.2072 15.1272 19.3146 15.1272 19.3146C15.1272 19.3146 15.1356 19.3998 15.1527 19.4505C15.1711 19.5062 15.2201 19.5855 15.2201 19.5855C15.2201 19.5855 15.2385 19.6261 15.2614 19.6241C15.2838 19.6217 15.2784 19.5952 15.2784 19.5952C15.2784 19.5952 15.207 19.3119 15.205 19.2831C15.1966 19.1888 15.1966 19.074 15.1966 19.074L15.1959 19.0568C15.1959 19.0568 15.1952 19.0266 15.1594 19.0259Z" fill="white"/>
<path d="M15.2707 18.1613C15.2707 18.1613 15.2315 18.154 15.1953 18.2294C15.1587 18.306 15.1665 18.3369 15.1698 18.3402C15.1725 18.3436 15.2013 18.3429 15.2476 18.2721C15.2936 18.202 15.2831 18.1751 15.2831 18.1751C15.2831 18.1751 15.2804 18.1613 15.2707 18.1613Z" fill="white"/>
<path d="M16.3501 18.9447C16.3501 18.9447 16.3973 19.0155 16.3068 18.9991C16.2159 18.9826 16.0251 18.8319 15.9472 18.7913C15.8704 18.7507 15.744 18.7379 15.797 18.6903C15.8067 18.6822 15.8094 18.6745 15.8245 18.6738C15.8402 18.6731 15.8926 18.6936 15.8959 18.696C15.8986 18.6973 16.0331 18.753 16.0381 18.7544C16.0428 18.7564 16.1183 18.7886 16.1719 18.8201C16.2256 18.852 16.3127 18.9131 16.3127 18.9131L16.3501 18.9447Z" fill="white"/>
<path d="M18.8659 21.1121C18.8907 21.19 18.5795 20.9476 18.4128 20.8191C17.9711 20.4787 17.4304 19.7809 17.4978 19.7192C17.5535 19.6685 17.7752 19.988 18.1002 20.3401C18.4477 20.7154 18.8515 21.0658 18.8659 21.1121Z" fill="white"/>
<path d="M20.1653 20.7783C20.0687 20.8814 20.0345 21.0133 20.0901 21.112C20.1445 21.2079 20.1613 20.9716 20.2217 20.9022C20.274 20.8414 20.3062 20.8512 20.392 20.7901C20.5383 20.687 20.2874 20.6471 20.1653 20.7783Z" fill="white"/>
<path d="M19.6125 18.576C19.5461 18.5653 19.5481 18.6663 19.5575 18.7378C19.6018 19.0579 19.7454 19.3047 19.9372 19.5369C20.054 19.6786 20.3739 19.931 20.4108 19.8904C20.4242 19.876 20.1062 19.6299 19.9036 19.3138C19.7601 19.0896 19.6836 18.8999 19.6655 18.715C19.6636 18.6914 19.6689 18.5851 19.6125 18.576Z" fill="white"/>
<path d="M18.3736 13.83C18.2293 13.9082 17.9791 13.977 17.9791 13.977C17.9791 13.977 17.9677 14.0019 17.9999 13.9992C18.2143 13.9821 18.2961 13.9552 18.4101 13.9049C18.5242 13.8556 18.607 13.7186 18.607 13.7186C18.607 13.7186 18.6533 13.6333 18.5675 13.7035C18.5406 13.725 18.4527 13.7867 18.3736 13.83Z" fill="white"/>
<path d="M20.1136 13.2802C20.1136 13.2802 20.0647 13.2694 20.0318 13.2899C19.9989 13.3107 20.0083 13.3272 20.0083 13.3272C20.0083 13.3272 20.0593 13.3661 20.0955 13.3725C20.1317 13.3779 20.2095 13.4118 20.2069 13.3856C20.2035 13.3588 20.1599 13.3108 20.1445 13.2977C20.1304 13.2838 20.1136 13.2802 20.1136 13.2802Z" fill="white"/>
<path d="M19.2946 14.784C19.3029 14.8011 19.4492 14.7612 19.5056 14.7296C19.5495 14.7047 19.5669 14.6215 19.5669 14.6215C19.5669 14.6215 19.579 14.5409 19.5602 14.5721C19.4767 14.7088 19.2865 14.7665 19.2946 14.784Z" fill="white"/>
<path d="M19.2899 14.4083C19.349 14.2949 19.1279 14.5261 19.0152 14.5859C18.9464 14.6221 18.8344 14.6704 18.8344 14.6704C18.8344 14.6704 18.8049 14.7074 18.8461 14.704C18.8874 14.7013 18.9924 14.7369 19.0776 14.6711C19.0977 14.655 19.1863 14.5261 19.1863 14.5261C19.1863 14.5261 19.2617 14.462 19.2899 14.4083Z" fill="white"/>
<path d="M19.2557 14.891C19.2603 14.9094 19.5082 14.9034 19.5703 14.8846C19.6192 14.8712 19.6461 14.7846 19.6461 14.7846C19.6461 14.7846 19.6756 14.7088 19.6501 14.7342C19.5377 14.849 19.2513 14.8725 19.2557 14.891Z" fill="white"/>
<path d="M15.2747 17.1627C15.2747 17.1627 15.2372 17.149 15.1906 17.2191C15.1443 17.2889 14.9357 17.6061 14.9725 17.6527C15.0165 17.7078 15.1972 17.3695 15.2523 17.3064C15.308 17.2423 15.2852 17.1778 15.2852 17.1778C15.2852 17.1778 15.2845 17.1634 15.2747 17.1627Z" fill="white"/>
<path d="M19.8191 22.8817C19.7963 22.9871 19.8231 23.2026 19.8594 23.2448C19.9479 23.3516 19.8936 23.0777 19.9063 22.9817C19.9171 22.8924 19.9278 22.8615 19.9721 22.7662C20.0512 22.5944 19.8655 22.6575 19.8191 22.8817Z" fill="white"/>
<path d="M19.0577 13.7163C19.0577 13.7163 18.989 13.7183 18.9353 13.7479C18.881 13.7774 18.8676 13.8194 18.8676 13.8194C18.8676 13.8194 18.8565 13.8496 18.8639 13.866C18.8797 13.902 18.9541 13.8476 19.0061 13.8654C19.048 13.8804 19.0682 13.8929 19.1003 13.9315C19.1285 13.9651 19.1778 14.0134 19.2087 13.9858C19.2405 13.959 19.2288 13.8902 19.2288 13.8902C19.2288 13.8902 19.1923 13.7781 19.1443 13.7465C19.096 13.7143 19.0577 13.7163 19.0577 13.7163Z" fill="white"/>
<path d="M17.9154 14.5044C17.9154 14.5044 17.8768 14.5104 17.8859 14.5574C17.8949 14.6034 17.9201 14.5963 17.9201 14.5963C17.9201 14.5963 17.9999 14.562 17.9952 14.5141C17.9895 14.4657 17.9154 14.5044 17.9154 14.5044Z" fill="white"/>
<path d="M17.3576 14.2541C17.3576 14.2541 17.3157 14.2558 17.2862 14.3078C17.2574 14.3595 17.2402 14.4132 17.2402 14.4132C17.2402 14.4132 17.2265 14.481 17.2506 14.5025C17.2751 14.5236 17.3019 14.4585 17.3371 14.433C17.3582 14.4179 17.3713 14.4112 17.3931 14.3957C17.423 14.3752 17.4716 14.4014 17.4683 14.341C17.464 14.2802 17.3996 14.2514 17.3576 14.2541Z" fill="white"/>
<path d="M19.1601 13.6046C19.1601 13.6046 19.0652 13.5908 19.0688 13.6274C19.0722 13.6616 19.1202 13.6411 19.151 13.6549C19.1812 13.6687 19.2013 13.6741 19.2255 13.6962C19.2432 13.712 19.2412 13.7429 19.263 13.7435C19.2932 13.7442 19.2872 13.7318 19.2872 13.7318C19.2872 13.7318 19.2597 13.6499 19.2238 13.6267C19.1883 13.6032 19.1601 13.6046 19.1601 13.6046Z" fill="white"/>
<path d="M20.2189 13.9875C20.2055 14.0392 20.1974 14.057 20.1974 14.057C20.1974 14.057 20.1707 14.1621 20.2766 14.1234C20.3826 14.0845 20.3276 14.1009 20.404 14.0637C20.4792 14.0268 20.4779 14.0473 20.5329 14.05C20.5516 14.0506 20.5637 14.0513 20.5919 14.0459C20.616 14.0405 20.606 14.0123 20.5523 13.9979C20.4947 13.9828 20.4242 13.9862 20.3424 13.9855C20.2941 13.9849 20.233 13.9359 20.2189 13.9875Z" fill="white"/>
<path d="M20.2659 13.5991C20.2659 13.5991 20.2176 13.5881 20.184 13.6089C20.1512 13.6293 20.1612 13.6458 20.1612 13.6458C20.1612 13.6458 20.2116 13.6858 20.2485 13.6911C20.2847 13.6975 20.3625 13.7311 20.3598 13.7042C20.3558 13.678 20.3129 13.6294 20.2974 13.6163C20.282 13.6032 20.2659 13.5991 20.2659 13.5991Z" fill="white"/>
<path d="M20.4524 14.3284C20.4524 14.3284 20.4007 14.318 20.3652 14.3378C20.3303 14.3573 20.3397 14.3731 20.3397 14.3731C20.3397 14.3731 20.3947 14.41 20.4336 14.4157C20.4725 14.4211 20.5557 14.4526 20.5523 14.4274C20.549 14.4026 20.502 14.3566 20.4866 14.3442C20.4711 14.3317 20.4524 14.3284 20.4524 14.3284Z" fill="white"/>
<path d="M20.4685 14.5932C20.4685 14.5932 20.4135 14.5808 20.3759 14.6036C20.3384 14.6261 20.3497 14.6443 20.3497 14.6443C20.3497 14.6443 20.4068 14.6875 20.4484 14.6936C20.4893 14.7 20.5779 14.7362 20.5738 14.7074C20.5705 14.6785 20.5208 14.6261 20.5034 14.6121C20.4873 14.5972 20.4685 14.5932 20.4685 14.5932Z" fill="white"/>
<path d="M20.4933 14.8509C20.4933 14.8509 20.4336 14.8371 20.3933 14.8626C20.3524 14.8881 20.3652 14.9086 20.3652 14.9086C20.3652 14.9086 20.4269 14.9569 20.4712 14.9643C20.5161 14.9714 20.612 15.0126 20.608 14.9801C20.604 14.9479 20.5503 14.8881 20.5316 14.8723C20.5141 14.8555 20.4933 14.8509 20.4933 14.8509Z" fill="white"/>
<path d="M20.4879 15.1697C20.4879 15.1697 20.4282 15.157 20.3879 15.1822C20.347 15.207 20.3585 15.2275 20.3585 15.2275C20.3585 15.2275 20.4215 15.2758 20.4658 15.2832C20.5101 15.2903 20.606 15.3315 20.602 15.2993C20.5973 15.2667 20.5443 15.207 20.5262 15.1912C20.5074 15.1748 20.4879 15.1697 20.4879 15.1697Z" fill="white"/>
<path d="M20.4443 15.7914C20.4443 15.7914 20.3839 15.7784 20.3437 15.8039C20.3034 15.8291 20.3155 15.8492 20.3155 15.8492C20.3155 15.8492 20.3772 15.8979 20.4215 15.9049C20.4665 15.9117 20.5624 15.9536 20.5584 15.9207C20.5543 15.8885 20.5007 15.8291 20.4819 15.8126C20.4638 15.7962 20.4443 15.7914 20.4443 15.7914Z" fill="white"/>
<path d="M20.4846 15.4808C20.4846 15.4808 20.4162 15.465 20.3679 15.4945C20.3215 15.5234 20.3357 15.5469 20.3357 15.5469C20.3357 15.5469 20.4075 15.6033 20.4591 15.6113C20.5101 15.6197 20.6215 15.667 20.6174 15.6301C20.612 15.5922 20.5503 15.5234 20.5289 15.5049C20.5074 15.4861 20.4846 15.4808 20.4846 15.4808Z" fill="white"/>
<path d="M20.4148 16.0726C20.4148 16.0726 20.3652 16.0608 20.3317 16.082C20.2981 16.1028 20.3089 16.1193 20.3089 16.1193C20.3089 16.1193 20.3598 16.1599 20.3961 16.1652C20.433 16.1713 20.5115 16.2052 20.5087 16.1783C20.5047 16.1515 20.4611 16.1028 20.4457 16.0897C20.431 16.076 20.4148 16.0726 20.4148 16.0726Z" fill="white"/>
<path d="M20.3679 16.3421C20.3679 16.3421 20.3276 16.3333 20.2994 16.3505C20.2727 16.3676 20.2807 16.3813 20.2807 16.3813C20.2807 16.3813 20.3229 16.4142 20.3531 16.4193C20.3833 16.424 20.4497 16.4529 20.447 16.43C20.4443 16.4082 20.4068 16.3676 20.3947 16.3565C20.3819 16.3454 20.3679 16.3421 20.3679 16.3421Z" fill="white"/>
<path d="M20.3102 16.5877C20.3102 16.5877 20.274 16.5793 20.2485 16.595C20.2243 16.6101 20.231 16.6232 20.231 16.6232C20.231 16.6232 20.2693 16.6528 20.2968 16.6568C20.3243 16.6619 20.3833 16.687 20.3807 16.6672C20.3786 16.6474 20.3457 16.6101 20.3343 16.6004C20.3229 16.5904 20.3102 16.5877 20.3102 16.5877Z" fill="white"/>
<path d="M20.2525 16.789C20.2525 16.789 20.2149 16.7805 20.1908 16.7956C20.1652 16.8114 20.1727 16.8238 20.1727 16.8238C20.1727 16.8238 20.2109 16.854 20.2384 16.8581C20.2659 16.8624 20.3249 16.8883 20.3223 16.8679C20.3203 16.848 20.2874 16.8115 20.2753 16.8017C20.2645 16.7917 20.2525 16.789 20.2525 16.789Z" fill="white"/>
<path d="M20.1821 17.0225C20.1821 17.0225 20.1526 17.0154 20.1318 17.0279C20.1116 17.041 20.1184 17.0507 20.1184 17.0507C20.1184 17.0507 20.1492 17.0749 20.1713 17.0789C20.1935 17.0822 20.2418 17.1031 20.2391 17.0863C20.2371 17.0705 20.2103 17.041 20.2016 17.0326C20.1921 17.0245 20.1821 17.0225 20.1821 17.0225Z" fill="white"/>
<path d="M20.0982 17.241C20.0982 17.241 20.0727 17.2349 20.0553 17.2456C20.0379 17.2567 20.0433 17.2658 20.0433 17.2658C20.0433 17.2658 20.0701 17.2862 20.0889 17.2889C20.1077 17.2926 20.1492 17.3104 20.1472 17.296C20.1459 17.2822 20.1224 17.2567 20.115 17.25C20.1062 17.243 20.0982 17.241 20.0982 17.241Z" fill="white"/>
<path d="M20.0117 17.4487C20.0117 17.4487 19.9855 17.443 19.9681 17.4541C19.9512 17.4645 19.9573 17.4732 19.9573 17.4732C19.9573 17.4732 19.9828 17.494 20.0023 17.4974C20.0217 17.5001 20.0626 17.5179 20.0606 17.5045C20.0593 17.4897 20.0358 17.4645 20.0284 17.4575C20.0204 17.4507 20.0117 17.4487 20.0117 17.4487Z" fill="white"/>
<path d="M14.3963 18.5056C14.3963 18.5056 14.3531 18.5895 14.3745 18.6355C14.3957 18.6818 14.454 18.562 14.454 18.562C14.454 18.562 14.5144 18.4424 14.4899 18.4207C14.4651 18.3985 14.4507 18.4602 14.3963 18.5056Z" fill="white"/>
<path d="M20.502 29.2826V29.1196C20.502 28.749 20.6892 28.6765 21.2359 28.6738C21.739 28.6765 21.9167 28.7396 21.9167 29.0591V30.2923H22.1025V30.5702H20.8736C20.6147 30.5702 20.4457 30.3923 20.4457 30.1735V29.9237C20.4457 29.7082 20.5556 29.5203 20.9407 29.5182H21.421V29.143C21.421 28.9469 21.4076 28.9235 21.2111 28.9235H21.2091C20.9736 28.9235 20.9582 28.9544 20.9582 29.143V29.2826H20.502V29.2826ZM21.0722 29.7251C20.9756 29.7251 20.9186 29.8029 20.9186 29.8996V30.1379C20.9186 30.2339 20.9596 30.3104 21.0722 30.3118H21.2453C21.3406 30.3118 21.4184 30.2822 21.4184 30.1379L21.4197 29.7251H21.256C21.252 29.7251 21.0722 29.7251 21.0722 29.7251Z" fill="white"/>
<path d="M19.3332 29.1383V28.7073H18.6476V28.9637H18.8304V30.2916H18.6476V30.5702H19.5063V30.2916H19.3332V29.58C19.3332 29.5136 19.7373 29.0028 19.7373 29.0618V29.7686H20.2123V28.9732C20.2123 28.7913 20.0935 28.6738 19.8769 28.6738C19.6193 28.6738 19.4452 28.998 19.3332 29.1383Z" fill="white"/>
<path d="M24.7979 30.29V28.707H24.0982V28.9635H24.2942V30.29H24.0982V30.5699H24.9817V30.29H24.7979Z" fill="white"/>
<path d="M17.5692 29.1383V28.7073H16.8837V28.9637H17.0665V30.2916H16.8837V30.5702H17.7417V30.2916H17.5692V29.58C17.5692 29.5136 17.9731 29.0028 17.9731 29.0618V29.7686H18.4477V28.9732C18.4477 28.7913 18.3296 28.6738 18.1126 28.6738C17.8556 28.6738 17.6813 28.998 17.5692 29.1383Z" fill="white"/>
<path fill-rule="evenodd" clip-rule="evenodd" d="M16.6214 29.9599H16.1404V30.0995C16.1404 30.2889 16.1089 30.2969 15.8744 30.2996H15.8711C15.6024 30.3009 15.6175 30.2741 15.6205 30.0995V29.7686H16.6214V29.0496C16.6214 28.7891 16.4248 28.6797 15.9063 28.6777H15.8318C15.272 28.6804 15.1231 28.8079 15.1231 29.1302V30.1828C15.1231 30.5372 15.3324 30.5969 15.8422 30.611H15.8979C16.4543 30.5983 16.6214 30.56 16.6214 30.2291V29.9599H16.6214ZM15.6259 29.0764C15.6259 28.9785 15.6555 28.9301 15.7675 28.9287H15.9784C16.0657 28.9287 16.1143 28.9677 16.1143 29.0375V29.5766H15.6259V29.0764H15.6259Z" fill="white"/>
<path d="M24.5444 28.3243V27.9873" stroke="white" stroke-width="0.537986" stroke-miterlimit="10"/>
<path d="M22.9747 29.1383V28.7073H22.2884V28.9637H22.4709V30.2916H22.2884V30.5702H23.147V30.2916H22.9747V29.58C22.9747 29.5136 23.3778 29.0028 23.3778 29.0618V29.7686H23.8534V28.9732C23.8534 28.7913 23.734 28.6738 23.5166 28.6738C23.2604 28.6738 23.086 28.998 22.9747 29.1383Z" fill="white"/>
<path d="M14.5234 29.6646V29.4162H14.2561V30.2922H14.7193V30.5702H13.3613V30.2922H13.7225V28.3247H13.4388V27.9863H24.0163V28.3247H14.2561V29.1148H14.5234V28.8812H14.831V29.6646H14.5234Z" fill="white"/>
<path d="M24.7911 27.9741H24.2867V28.3071H24.7911V27.9741Z" fill="white"/>
</g>
<defs>
<clipPath id="clip0_3491_19497">
<rect width="15" height="24" fill="white" transform="translate(11.75 8)"/>
</clipPath>
</defs>
</svg>
