<svg width="40" height="40" viewBox="0 0 40 40" fill="none" xmlns="http://www.w3.org/2000/svg">
<rect width="40" height="40" rx="10" fill="#0F172A"/>
<path d="M24.6419 13.687C23.2808 13.2551 21.5863 13 19.7506 13C17.915 13 16.2201 13.2552 14.8587 13.687C11.2379 14.8356 8.75 17.2209 8.75 19.9777C8.75 23.8556 13.6748 27 19.7506 27C25.825 27 30.75 23.8556 30.75 19.9777C30.75 17.2211 28.2621 14.8365 24.6419 13.687ZM19.7506 23.9805C18.8439 23.9805 18.1035 22.2215 18.0601 20.0112C18.6053 20.0596 19.1708 20.0856 19.7506 20.0856C20.3304 20.0856 20.8951 20.0596 21.4409 20.0112C21.3971 22.2215 20.657 23.9805 19.7506 23.9805ZM18.1743 18.2808C18.4215 16.7293 19.0337 15.6304 19.7506 15.6304C20.4675 15.6304 21.0789 16.7293 21.3259 18.2808C20.8222 18.3257 20.2946 18.3503 19.7506 18.3503C19.2067 18.3503 18.679 18.3254 18.1743 18.2808ZM22.2892 18.1638C21.9216 15.7286 20.9238 13.983 19.7506 13.983C18.5774 13.983 17.579 15.7286 17.2112 18.1638C14.9767 17.8195 13.4149 17.0362 13.4149 16.1236C13.4149 14.8938 16.2516 13.8969 19.7509 13.8969C23.2501 13.8969 26.086 14.8938 26.086 16.1236C26.086 17.0362 24.5241 17.8195 22.2895 18.1638H22.2892ZM10.3555 19.7204C10.3555 18.5317 10.8191 17.4175 11.6282 16.459C11.6189 16.5255 11.6142 16.5926 11.614 16.6597C11.614 18.1551 13.8903 19.4263 17.0643 19.8938C17.0618 20.0068 17.0599 20.1199 17.0599 20.2343C17.0599 23.0149 17.8415 25.3701 18.9222 26.1821C14.1211 25.8925 10.3555 23.1107 10.3555 19.7204ZM20.5792 26.1824C21.6592 25.3704 22.4408 23.0153 22.4408 20.2346C22.4408 20.1202 22.4396 20.0071 22.437 19.8941C25.6102 19.4268 27.8869 18.1556 27.8869 16.66C27.8866 16.5929 27.8818 16.5258 27.8723 16.4593C28.6812 17.4178 29.145 18.5319 29.145 19.7207C29.145 23.111 25.3793 25.8928 20.5797 26.1825" fill="white"/>
</svg>
